<svg xmlns="http://www.w3.org/2000/svg" width="420.609" height="420.609"><path d="M350.035 275.014c-3.38-8.072-11.508-13.254-19.263-16.434l-25.851-11.898c-.028-18.977-.207-113.495-.101-123.436.153-15.465-1.69-29.278-5.754-41.227l32.188-11.63.074 29.738-2.188-.001a2.806 2.806 0 0 0-3.04 2.478l-2.833 24.559a2.793 2.793 0 0 0 .609 2.081 2.775 2.775 0 0 0 1.914 1.026l22.482-.008a2.825 2.825 0 0 0 2.521-3.128c-.567-4.823-1.132-9.639-1.693-14.462l-1.174-10.095a2.813 2.813 0 0 0-3.044-2.466l-2.188.003.047-33.883 1.144-.415 3.806-1.375a8.135 8.135 0 0 0 0-15.303L213.071.488a8.088 8.088 0 0 0-5.531 0L72.915 49.139c-3.227 1.165-5.374 4.227-5.374 7.653s2.147 6.486 5.374 7.65l48.819 17.644c-4.263 12.257-6.203 26.431-6.044 42.259l.002 122.333-25.855 11.902c-7.757 3.18-15.383 8.016-19.263 16.434 0 0-56.998 145.596-26.081 145.596h331.62c30.921-.003-26.078-145.596-26.078-145.596zm-87.916-12.504s-43.391 14.377-51.748 64.875c-.022.133-.106.133-.129 0-8.359-50.498-51.748-64.875-51.748-64.875l28.439-28.242c-40.093-17.982-50.755-79.127-50.755-79.127-2.266-8.839-2.539-14.885-2.539-14.885 20.073-1.367 90.128-7.401 94.917-30.111 6.603 12.2 41.561 42.857 55.705 45.185 0 0-13.729 60.463-51.229 78.895l29.087 28.285z"/></svg>